<svg width="1em" height="1em" viewBox="0 0 36 36" xmlns="http://www.w3.org/2000/svg" class="larkui-icon larkui-icon-editor-main-formula"><g fill="none" fill-rule="evenodd"><rect stroke="#E7E9E8" fill="#FFF" x="0.5" y="0.5" width="35" height="35" rx="6"></rect><path d="M5.5 25.362h25a.5.5 0 1 1 0 1h-25a.5.5 0 0 1 0-1ZM5.5 29.418h14a.5.5 0 1 1 0 1h-14a.5.5 0 0 1 0-1Z" fill="#D7DBD9"></path><path d="m17.65 8.808.512-1.416c-3.903-.333-7.072-.333-9.508 0 .314.944 1.898 3.091 4.754 6.44-3.17 2.94-5.487 5.299-6.955 7.08 2.284.307 5.712.307 10.284 0l-.504-1.255" stroke="currentColor" stroke-width="1.5" stroke-linecap="round" stroke-linejoin="round"></path><path d="M22.126 15.672c.656-.748 1.199-.99 1.628-.722.51.315 1.476 1.876 2.103 3.262.628 1.387 1.82 2.738 2.201 2.852.5.148.87.007 1.109-.422" stroke="currentColor" stroke-width="1.2" stroke-linecap="round" stroke-linejoin="round"></path><path d="M29.912 14.845c-.58-.329-1.047-.329-1.404 0-.535.492-2.14 2.664-2.862 3.72-.72 1.057-2.653 2.92-3.257 2.92-.402 0-.778-.203-1.128-.609" stroke="currentColor" stroke-width="1.2" stroke-linecap="round" stroke-linejoin="round"></path></g></svg>